<?xml version="1.0" encoding="utf-8"?>
<!-- Generator: Adobe Illustrator 25.2.1, SVG Export Plug-In . SVG Version: 6.00 Build 0)  -->
<svg version="1.1" id="Capa_1" xmlns="http://www.w3.org/2000/svg" xmlns:xlink="http://www.w3.org/1999/xlink" x="0px" y="0px"
	 viewBox="0 0 139.1 28" style="enable-background:new 0 0 139.1 28;" xml:space="preserve">
<style type="text/css">
	.st0{enable-background:new    ;}
	.st1{fill:#8C8C8C;}
	.st2{fill:#00FF00;}
</style>
<g class="st0">
	<path class="st1" d="M32.6,20.4V7.5h5.9c1.4,0,2.6,0.3,3.7,0.8c1.1,0.5,1.9,1.3,2.5,2.2c0.6,1,0.9,2.1,0.9,3.4
		c0,1.3-0.3,2.4-0.9,3.4c-0.6,1-1.4,1.7-2.5,2.3c-1.1,0.5-2.3,0.8-3.7,0.8H32.6z M35.6,18h2.7c0.9,0,1.6-0.2,2.2-0.5
		c0.6-0.3,1.1-0.8,1.5-1.4c0.4-0.6,0.5-1.3,0.5-2.1c0-0.8-0.2-1.5-0.5-2.1s-0.8-1.1-1.5-1.4c-0.6-0.3-1.4-0.5-2.2-0.5h-2.7V18z"/>
</g>
<g class="st0">
	<path class="st1" d="M52.6,20.6c-1.1,0-2.1-0.2-3-0.7c-0.9-0.4-1.5-1-2-1.8c-0.5-0.8-0.7-1.6-0.7-2.6c0-1,0.2-1.9,0.7-2.6
		s1.1-1.4,1.9-1.8c0.8-0.4,1.7-0.7,2.7-0.7c1,0,1.8,0.2,2.6,0.6c0.8,0.4,1.4,1,1.9,1.8c0.5,0.8,0.7,1.7,0.7,2.8c0,0.1,0,0.2,0,0.4
		s0,0.3,0,0.4h-8.1v-1.7h6.6l-1.1,0.5c0-0.5-0.1-1-0.3-1.3c-0.2-0.4-0.5-0.7-0.9-0.9c-0.4-0.2-0.8-0.3-1.3-0.3
		c-0.5,0-0.9,0.1-1.3,0.3c-0.4,0.2-0.7,0.5-0.9,0.9c-0.2,0.4-0.3,0.8-0.3,1.4v0.4c0,0.5,0.1,1,0.4,1.4c0.2,0.4,0.6,0.7,1,0.9
		c0.4,0.2,1,0.3,1.5,0.3c0.5,0,1-0.1,1.4-0.2c0.4-0.2,0.8-0.4,1.1-0.7l1.5,1.7c-0.5,0.5-1,0.9-1.7,1.2
		C54.3,20.4,53.5,20.6,52.6,20.6z"/>
</g>
<g class="st0">
	<path class="st1" d="M61.8,20.4l-4.2-9.9h3l3.5,8.6h-1.5l3.6-8.6H69l-4.2,9.9H61.8z"/>
	<path class="st1" d="M70.4,20.4V7.5h6.3c1.6,0,2.8,0.3,3.7,0.9c0.8,0.6,1.2,1.4,1.2,2.4c0,0.7-0.2,1.3-0.5,1.8
		c-0.3,0.5-0.8,0.9-1.4,1.2c-0.6,0.3-1.2,0.4-2,0.4l0.4-0.8c0.8,0,1.5,0.1,2.2,0.4s1.1,0.7,1.5,1.2c0.4,0.5,0.5,1.2,0.5,1.9
		c0,1.1-0.4,2-1.3,2.6c-0.9,0.6-2.2,0.9-3.9,0.9H70.4z M73.4,18.2h3.5c0.8,0,1.4-0.1,1.8-0.4s0.6-0.7,0.6-1.2c0-0.5-0.2-0.9-0.6-1.2
		c-0.4-0.3-1-0.4-1.8-0.4h-3.7v-2.2h3.2c0.7,0,1.3-0.1,1.7-0.4c0.4-0.3,0.6-0.6,0.6-1.2c0-0.5-0.2-0.9-0.6-1.1s-0.9-0.4-1.7-0.4h-3
		V18.2z"/>
	<path class="st1" d="M87.4,20.6c-0.8,0-1.4-0.1-2-0.4c-0.6-0.3-1-0.6-1.3-1.1c-0.3-0.5-0.4-1-0.4-1.5c0-0.6,0.1-1.1,0.4-1.6
		s0.7-0.8,1.4-1c0.6-0.3,1.4-0.4,2.5-0.4h2.6v1.7h-2.3c-0.7,0-1.1,0.1-1.4,0.3s-0.4,0.5-0.4,0.8c0,0.4,0.1,0.7,0.4,0.9
		c0.3,0.2,0.7,0.3,1.2,0.3c0.5,0,0.9-0.1,1.3-0.3c0.4-0.2,0.7-0.6,0.8-1l0.4,1.3c-0.2,0.6-0.6,1.1-1.1,1.5
		C89,20.4,88.3,20.6,87.4,20.6z M90.4,20.4v-1.9l-0.2-0.4v-3.5c0-0.6-0.2-1.1-0.6-1.4c-0.4-0.3-1-0.5-1.7-0.5
		c-0.5,0-1.1,0.1-1.6,0.2s-0.9,0.4-1.3,0.7l-1-2c0.5-0.4,1.2-0.7,2-0.9c0.8-0.2,1.5-0.3,2.3-0.3c1.5,0,2.7,0.4,3.5,1.1
		c0.8,0.7,1.3,1.8,1.3,3.3v5.7H90.4z"/>
</g>
<g class="st0">
	<path class="st1" d="M95.7,20.4V6.7h2.9v13.7H95.7z"/>
</g>
<g class="st0">
	<path class="st1" d="M100.8,12.7v-2.2h6.9v2.2H100.8z M106.1,20.6c-1.2,0-2.1-0.3-2.7-0.9c-0.7-0.6-1-1.5-1-2.7V8.3h2.9V17
		c0,0.4,0.1,0.7,0.3,1c0.2,0.2,0.5,0.3,0.9,0.3c0.5,0,0.8-0.1,1.2-0.4l0.8,2c-0.3,0.2-0.6,0.4-1.1,0.5
		C106.9,20.5,106.5,20.6,106.1,20.6z"/>
	<path class="st1" d="M111.5,9.1c-0.5,0-1-0.2-1.3-0.5c-0.3-0.3-0.5-0.7-0.5-1.1c0-0.5,0.2-0.8,0.5-1.1c0.3-0.3,0.8-0.5,1.3-0.5
		s1,0.1,1.3,0.4c0.3,0.3,0.5,0.7,0.5,1.1c0,0.5-0.2,0.9-0.5,1.2C112.5,9,112,9.1,111.5,9.1z M110,20.4v-9.9h2.9v9.9H110z"/>
</g>
<g class="st0">
	<path class="st1" d="M120.4,20.6c-1.1,0-2-0.2-2.9-0.7c-0.8-0.4-1.5-1-2-1.8c-0.5-0.8-0.7-1.7-0.7-2.6c0-1,0.2-1.9,0.7-2.6
		c0.5-0.8,1.1-1.4,2-1.8c0.8-0.4,1.8-0.7,2.9-0.7c1,0,2,0.2,2.7,0.7c0.8,0.4,1.3,1.1,1.7,1.9l-2.2,1.2c-0.3-0.5-0.6-0.8-1-1
		s-0.8-0.3-1.3-0.3c-0.5,0-0.9,0.1-1.3,0.3c-0.4,0.2-0.7,0.5-0.9,0.9c-0.2,0.4-0.3,0.9-0.3,1.5c0,0.6,0.1,1.1,0.3,1.5
		c0.2,0.4,0.5,0.7,0.9,0.9c0.4,0.2,0.8,0.3,1.3,0.3c0.5,0,0.9-0.1,1.3-0.3c0.4-0.2,0.7-0.6,1-1l2.2,1.2c-0.4,0.8-0.9,1.4-1.7,1.9
		C122.3,20.4,121.4,20.6,120.4,20.6z"/>
</g>
<g class="st0">
	<path class="st1" d="M131.1,20.6c-1.1,0-2-0.2-2.8-0.7c-0.8-0.4-1.5-1-1.9-1.8c-0.5-0.8-0.7-1.6-0.7-2.6c0-1,0.2-1.9,0.7-2.6
		c0.5-0.8,1.1-1.4,1.9-1.8c0.8-0.4,1.8-0.7,2.8-0.7c1,0,2,0.2,2.8,0.7c0.8,0.4,1.5,1,1.9,1.8c0.5,0.8,0.7,1.7,0.7,2.7
		c0,1-0.2,1.9-0.7,2.6c-0.5,0.8-1.1,1.4-1.9,1.8C133.1,20.4,132.2,20.6,131.1,20.6z M131.1,18.2c0.5,0,0.9-0.1,1.3-0.3
		c0.4-0.2,0.7-0.5,0.9-1c0.2-0.4,0.3-0.9,0.3-1.5c0-0.6-0.1-1.1-0.3-1.5c-0.2-0.4-0.5-0.7-0.9-0.9c-0.4-0.2-0.8-0.3-1.3-0.3
		s-0.9,0.1-1.3,0.3s-0.7,0.5-0.9,0.9c-0.2,0.4-0.3,0.9-0.3,1.5c0,0.6,0.1,1.1,0.3,1.5c0.2,0.4,0.5,0.7,0.9,1S130.6,18.2,131.1,18.2z
		"/>
</g>
<circle cx="15.4" cy="14" r="13"/>
<g>
	<polygon class="st2" points="13.9,3.5 5.5,18 7.5,18 13.9,6.8 18.6,15.2 20.6,15.2 	"/>
	<polygon class="st2" points="16.9,3.3 25.4,18 11.8,18 12.8,16.2 22.4,16.2 16,5 	"/>
	<polygon class="st2" points="13.9,9.1 14.9,10.7 10,19.1 22.9,19.1 23.8,20.7 7.2,20.7 	"/>
</g>
</svg>
